<svg xmlns="http://www.w3.org/2000/svg" viewBox="0 0 128 128" role="img" aria-label="CampusAgent Router logo">
  <defs>
    <linearGradient id="g" x1="18" y1="18" x2="110" y2="110" gradientUnits="userSpaceOnUse">
      <stop stop-color="#4ee8ff"/>
      <stop offset="1" stop-color="#5dffb1"/>
    </linearGradient>
    <filter id="glow" x="-30%" y="-30%" width="160%" height="160%">
      <feGaussianBlur stdDeviation="4" result="blur"/>
      <feMerge>
        <feMergeNode in="blur"/>
        <feMergeNode in="SourceGraphic"/>
      </feMerge>
    </filter>
  </defs>
  <rect width="128" height="128" rx="24" fill="#071014"/>
  <path d="M64 12 108 38v52l-44 26-44-26V38L64 12Z" fill="#0d1b22" stroke="url(#g)" stroke-width="5" filter="url(#glow)"/>
  <path d="M38 68h30c12 0 18-7 18-18V39" fill="none" stroke="#4ee8ff" stroke-width="7" stroke-linecap="round"/>
  <path d="M88 39 76 47M88 39l8 12" fill="none" stroke="#4ee8ff" stroke-width="7" stroke-linecap="round" stroke-linejoin="round"/>
  <circle cx="38" cy="68" r="8" fill="#5dffb1"/>
  <circle cx="64" cy="39" r="7" fill="#4ee8ff"/>
  <circle cx="90" cy="86" r="8" fill="#ffd166"/>
  <path d="M45 76 84 86M66 45l19 34" fill="none" stroke="#8ba8b2" stroke-width="4" stroke-linecap="round" opacity=".7"/>
  <text x="64" y="103" text-anchor="middle" font-family="Segoe UI, Arial, sans-serif" font-size="21" font-weight="800" fill="#ecfbff">CA</text>
</svg>
